<svg width="185" height="74" viewBox="0 0 185 74" fill="none" xmlns="http://www.w3.org/2000/svg">
<path fill-rule="evenodd" clip-rule="evenodd" d="M50.7784 10.7628C61.0144 11.2395 67.9136 17.4363 67.8634 27.8478C67.9136 38.2594 61.0395 44.4562 50.7784 44.9329V44.682C50.7784 44.6318 50.8286 44.5816 50.8788 44.5565C57.1759 42.7502 58.355 35.3994 58.355 27.8478C58.355 16.5582 54.8678 11.5155 50.7784 11.0639V10.7628ZM46.0869 10.7628V11.0639C42.0226 11.5155 38.5103 16.5582 38.5103 27.8478C38.5103 35.3743 39.6644 42.6749 45.8862 44.5315L46.0869 44.5816V44.9329C35.851 44.4562 28.9517 38.2594 29.0019 27.8478C28.9517 17.4363 35.851 11.2646 46.0869 10.7628ZM173.259 0C179.154 0 180.509 4.54096 180.785 8.75576V8.8812V40.0658C180.785 44.7071 184.9 44.2555 185 44.2304V44.7071C185 44.7322 184.975 44.7573 184.95 44.7573H178.904C174.463 44.6067 172.055 41.3202 171.829 35.8259V35.6252V4.16463C171.829 -0.0250882 167.714 0.451587 167.614 0.476675V0.0501763C167.614 0.0250881 167.639 0 167.664 0H173.259ZM141.347 15.5547C143.755 18.4398 143.454 21.1242 143.504 24.6616V24.8624V40.6177C143.504 44.983 147.794 44.4813 147.92 44.4562V44.9078C147.92 44.9329 147.895 44.958 147.87 44.958H144.031C137.659 44.958 134.297 39.4386 134.146 34.9478V34.2453C134.146 29.7044 134.146 21.2747 134.146 21.626C134.347 15.931 131.612 12.243 128 11.6911C127.95 11.6911 127.95 11.6158 128 11.5907C133.218 9.58367 137.834 11.39 141.347 15.5547ZM101.682 10.7628C101.707 10.7628 101.732 10.7879 101.732 10.813V40.4421C101.732 44.958 106.148 44.4562 106.248 44.4311V44.8827C106.248 44.9078 106.223 44.9329 106.198 44.9329H102.259C97.7936 44.9329 92.3746 43.1014 92.3746 36.9799C92.3746 29.328 92.1488 11.1391 92.1488 10.7628H101.682ZM6.67345 11.4402C6.67345 11.4402 6.67345 11.4151 6.67345 11.4402C8.55506 10.9384 10.537 10.7126 12.4688 10.7879C15.078 10.9384 17.4112 12.0172 19.6189 13.3971C19.3931 13.5727 19.1673 13.4222 17.8628 12.795C16.9345 12.3434 15.4543 11.967 14.3002 11.9169C12.5692 11.8667 10.7879 11.8165 9.55858 13.096C8.63032 14.1246 8.12856 15.4041 8.12856 16.9847C8.12856 18.1638 8.47979 19.2928 9.20735 20.221C9.95999 21.1493 10.8381 22.0023 11.9169 22.7299C12.9455 23.4072 14.3755 24.2602 16.1568 25.2387C18.2893 26.3676 19.9702 27.3461 21.2497 28.2242C22.5292 29.1022 23.6079 30.181 24.5111 31.4605C25.3892 32.74 25.7906 34.2202 25.7906 35.876C25.7906 37.5068 25.2889 39.0622 24.3104 40.3919C23.332 41.7718 21.8016 42.8506 19.7695 43.6785C19.2175 43.8792 18.6907 44.0297 18.1387 44.1802C16.2069 44.7322 14.1999 44.958 12.1678 44.9078C10.0353 44.8325 8.02821 44.2555 6.19677 43.3021C6.19677 43.3021 6.09642 42.9509 7.8275 43.6534C10.4618 44.7071 13.7985 44.5064 15.9811 42.4491C17.1603 41.3202 17.7624 39.84 17.7624 37.9835C17.7624 36.9047 17.4112 35.9262 16.7338 35.0732C16.0815 34.2453 15.2536 33.4927 14.2752 32.8655C13.3469 32.2383 11.942 31.4354 10.236 30.457C8.0533 29.328 6.29712 28.2493 4.89219 27.321C3.56252 26.3927 2.43355 25.2136 1.4802 23.8337C0.501763 22.4288 0 20.773 0 18.8412C0 17.361 0.451587 15.9811 1.32967 14.7518C2.20776 13.5727 3.56252 12.5942 5.36886 11.8416L6.67345 11.4402ZM74.7627 10.7628C81.2856 10.7628 82.6905 16.4578 82.8411 21.1493V30.0305C82.8411 31.9372 82.8411 33.3923 82.8411 33.7185V33.7686C82.8411 36.8545 83.4683 39.0873 84.4216 40.693C86.0523 43.4778 89.7654 44.0799 90.7438 44.2053C90.794 44.2053 90.794 44.2806 90.7438 44.3057C85.3248 46.0368 79.128 44.2555 75.4651 40.1159C72.9563 37.0803 73.3076 34.2202 73.3076 30.457C73.1821 25.7906 73.2574 20.7479 73.2323 16.0313C73.6337 11.1391 69.5694 11.2395 68.7415 11.3398H68.7164V10.813C68.7164 10.7879 68.7415 10.7628 68.7666 10.7628H74.7627ZM167.087 10.8632C167.137 10.8632 167.137 10.9384 167.112 10.9635C166.234 11.3649 162.044 13.3218 161.041 15.655C158.708 19.7945 158.858 35.3241 160.89 39.5891C162.195 42.9509 166.109 44.2304 167.062 44.5064C167.112 44.5315 167.112 44.6067 167.062 44.6067C156.324 46.7643 148.873 38.1842 149.274 27.5719C148.999 16.5833 156.575 9.83455 167.087 10.8632ZM115.807 10.7628C120.323 10.7628 123.584 13.8988 123.584 19.3179C123.584 24.9125 123.885 37.3312 123.885 39.8902C123.885 44.8827 128.301 44.4311 128.401 44.4311V44.8074C128.401 44.8827 128.351 44.9329 128.276 44.9329H110.037C109.911 44.9329 109.786 44.8325 109.786 44.682C109.786 44.5565 109.886 44.4311 110.037 44.4311C110.965 44.4562 114.226 44.2053 114.302 40.0407V39.8651V15.2285C114.302 10.7377 109.886 11.2395 109.786 11.2646V10.8883C109.786 10.813 109.836 10.7628 109.911 10.7628H115.807Z" fill="#005B6F"/>
<path d="M69.4442 66.7605C69.4191 65.0294 70.0212 63.5241 71.3007 62.2697C72.5802 61.0153 74.0855 60.4132 75.8166 60.4383C76.8954 60.4383 77.8738 60.664 78.777 61.1407C79.6802 61.6174 80.3826 62.2446 80.9095 63.0725L79.8307 63.9255C78.8272 62.4955 77.4975 61.7679 75.8417 61.7679C74.4618 61.7679 73.3078 62.2446 72.3544 63.1979C71.4262 64.1513 70.9495 65.3304 70.9495 66.7605C70.9495 68.1905 71.4262 69.3696 72.3544 70.323C73.2827 71.2763 74.4367 71.753 75.8417 71.753C77.4975 71.753 78.8272 71.0254 79.8307 69.5954L80.9095 70.4484C80.3826 71.2763 79.6802 71.9035 78.777 72.3802C77.8738 72.8569 76.8954 73.0827 75.8166 73.0827C74.0855 73.1078 72.5802 72.5057 71.3007 71.2512C70.0212 69.9968 69.394 68.4916 69.4442 66.7605Z" fill="#005B6F"/>
<path d="M97.9688 69.344C97.9688 70.3726 97.6176 71.2256 96.9151 71.8779C96.2126 72.5301 95.2593 72.8563 94.1052 72.8563H89.0625V60.6133H93.2773C94.331 60.6133 95.184 60.9143 95.8112 61.4914C96.4384 62.0684 96.7646 62.821 96.7646 63.7242C96.7646 64.7277 96.3632 65.5306 95.5854 66.1327C96.3381 66.3585 96.9151 66.7599 97.3416 67.3118C97.7681 67.8888 97.9688 68.5662 97.9688 69.344ZM93.1268 61.9429H90.5176V65.7313H93.1268C93.8293 65.7313 94.3561 65.5556 94.7324 65.2295C95.1087 64.8783 95.2844 64.4267 95.2844 63.8246C95.2844 63.2224 95.1087 62.7709 94.7324 62.4447C94.331 62.0935 93.8042 61.9429 93.1268 61.9429ZM95.8112 70.9747C96.2628 70.5733 96.4886 70.0213 96.4886 69.3189C96.4886 68.6164 96.2628 68.0645 95.8112 67.6631C95.3596 67.2616 94.7324 67.0609 93.9547 67.0609H90.5176V71.5768H93.9547C94.7324 71.5768 95.3596 71.3761 95.8112 70.9747Z" fill="#005B6F"/>
<path d="M115.582 72.8817H113.901L110.113 67.7386H107.504V72.8817H106.049V60.6387H110.339C111.518 60.6387 112.471 60.9648 113.174 61.6422C113.901 62.2945 114.253 63.1475 114.253 64.2012C114.253 65.0291 114.027 65.7316 113.575 66.3337C113.124 66.9358 112.496 67.3623 111.694 67.5881L115.582 72.8817ZM107.479 61.9433V66.4591H110.289C111.066 66.4591 111.669 66.2584 112.095 65.857C112.522 65.4556 112.747 64.9037 112.747 64.2263C112.747 63.5489 112.522 62.997 112.095 62.5955C111.643 62.169 111.041 61.9683 110.289 61.9683H107.479V61.9433Z" fill="#005B6F"/>
</svg>
