<svg width="49" height="49" viewBox="0 0 49 49" fill="none" xmlns="http://www.w3.org/2000/svg">
<path d="M24.6942 0C18.0912 0 17.2669 0.0303819 14.6743 0.145833C12.0857 0.267361 10.3236 0.674479 8.77409 1.27604C7.176 1.89583 5.81894 2.7283 4.46795 4.07928C3.11697 5.43027 2.28248 6.7853 1.66471 8.38542C1.06315 9.9349 0.654007 11.697 0.534505 14.2856C0.412977 16.8782 0.388672 17.7025 0.388672 24.3056C0.388672 30.9086 0.419054 31.7329 0.534505 34.3255C0.656033 36.912 1.06315 38.6762 1.66471 40.2257C2.28451 41.8218 3.11697 43.1808 4.46795 44.5318C5.81894 45.8808 7.17397 46.7173 8.77409 47.3351C10.3256 47.9346 12.0877 48.3458 14.6743 48.4653C17.2669 48.5868 18.0912 48.6111 24.6942 48.6111C31.2972 48.6111 32.1216 48.5807 34.7142 48.4653C37.3007 48.3437 39.0649 47.9346 40.6144 47.3351C42.2104 46.7153 43.5695 45.8808 44.9205 44.5318C46.2695 43.1808 47.106 41.8278 47.7237 40.2257C48.3233 38.6762 48.7344 36.912 48.8539 34.3255C48.9755 31.7329 48.9998 30.9086 48.9998 24.3056C48.9998 17.7025 48.9694 16.8782 48.8539 14.2856C48.7324 11.6991 48.3233 9.93287 47.7237 8.38542C47.104 6.78733 46.2695 5.43027 44.9205 4.07928C43.5695 2.7283 42.2165 1.89381 40.6144 1.27604C39.0649 0.674479 37.3007 0.265336 34.7142 0.145833C32.1216 0.0243056 31.2972 0 24.6942 0ZM24.6942 4.375C31.1818 4.375 31.9555 4.40741 34.5177 4.51881C36.8875 4.63021 38.1737 5.02315 39.0284 5.35937C40.1667 5.7989 40.9729 6.32552 41.8276 7.17419C42.6763 8.02488 43.2029 8.83304 43.6424 9.97135C43.9746 10.8261 44.3716 12.1123 44.4789 14.4821C44.5944 17.0463 44.6207 17.816 44.6207 24.3056C44.6207 30.7951 44.5903 31.5668 44.4708 34.1291C44.3473 36.4988 43.9523 37.785 43.6181 38.6398C43.1644 39.7781 42.6479 40.5842 41.7972 41.4389C40.9486 42.2876 40.1283 42.8142 39.0021 43.2538C38.1514 43.5859 36.845 43.9829 34.4752 44.0903C31.8947 44.2057 31.1352 44.2321 24.6335 44.2321C18.1297 44.2321 17.3702 44.2017 14.7917 44.0822C12.4199 43.9586 11.1135 43.5637 10.2628 43.2295C9.11032 42.7757 8.31836 42.2593 7.46969 41.4086C6.61697 40.5599 6.07212 39.7396 5.64677 38.6134C5.31257 37.7627 4.91963 36.4563 4.79608 34.0865C4.70493 31.5344 4.67253 30.7465 4.67253 24.2752C4.67253 17.8018 4.70493 17.0119 4.79608 14.4294C4.91963 12.0596 5.31257 10.7552 5.64677 9.90451C6.07212 8.75 6.61697 7.96007 7.46969 7.10735C8.31836 6.25868 9.11032 5.71181 10.2628 5.28848C11.1135 4.95226 12.3916 4.55729 14.7614 4.43576C17.3438 4.34462 18.1034 4.31424 24.6031 4.31424L24.6942 4.375ZM24.6942 11.8247C17.7975 11.8247 12.2133 17.4149 12.2133 24.3056C12.2133 31.2023 17.8036 36.7865 24.6942 36.7865C31.5909 36.7865 37.1751 31.1962 37.1751 24.3056C37.1751 17.4089 31.5849 11.8247 24.6942 11.8247ZM24.6942 32.4074C20.218 32.4074 16.5924 28.7818 16.5924 24.3056C16.5924 19.8293 20.218 16.2037 24.6942 16.2037C29.1705 16.2037 32.7961 19.8293 32.7961 24.3056C32.7961 28.7818 29.1705 32.4074 24.6942 32.4074ZM40.586 11.3325C40.586 12.9427 39.2776 14.2491 37.6693 14.2491C36.0591 14.2491 34.7527 12.9407 34.7527 11.3325C34.7527 9.72425 36.0611 8.41782 37.6693 8.41782C39.2755 8.4158 40.586 9.72425 40.586 11.3325Z" fill="#C7A4A0"/>
</svg>
