<?xml version="1.0" encoding="UTF-8" standalone="no"?>
<svg
   width="96"
   height="40"
   viewBox="0 0 96 40"
   fill="none"
   version="1.1"
   id="svg4"
   sodipodi:docname="Vector.svg"
   inkscape:version="1.1.1 (3bf5ae0d25, 2021-09-20)"
   xmlns:inkscape="http://www.inkscape.org/namespaces/inkscape"
   xmlns:sodipodi="http://sodipodi.sourceforge.net/DTD/sodipodi-0.dtd"
   xmlns="http://www.w3.org/2000/svg"
   xmlns:svg="http://www.w3.org/2000/svg">
  <defs
     id="defs8" />
  <sodipodi:namedview
     id="namedview6"
     pagecolor="#ffffff"
     bordercolor="#666666"
     borderopacity="1.0"
     inkscape:pageshadow="2"
     inkscape:pageopacity="0.0"
     inkscape:pagecheckerboard="0"
     showgrid="false"
     inkscape:zoom="15.114583"
     inkscape:cx="32.683666"
     inkscape:cy="34.205376"
     inkscape:window-width="3840"
     inkscape:window-height="2066"
     inkscape:window-x="-11"
     inkscape:window-y="-11"
     inkscape:window-maximized="1"
     inkscape:current-layer="svg4" />
  <path
     fill-rule="evenodd"
     clip-rule="evenodd"
     d="m 26.3499,5.58503 c 5.3116,0.24735 8.8918,3.46298 8.8657,8.86577 0.0261,5.4027 -3.5411,8.6184 -8.8657,8.8657 v -0.1302 c 0,-0.026 0.026,-0.052 0.0521,-0.0651 3.2676,-0.9373 3.8795,-4.7518 3.8795,-8.6704 0,-5.85845 -1.8096,-8.47521 -3.9316,-8.70955 z m -2.4345,0 v 0.15622 c -2.1091,0.23434 -3.9317,2.8511 -3.9317,8.70955 0,3.9056 0.5989,7.694 3.8275,8.6574 l 0.1042,0.0261 v 0.1822 c -5.3117,-0.2473 -8.8918,-3.463 -8.8658,-8.8657 -0.026,-5.40279 3.5541,-8.6054 8.8658,-8.86577 z M 89.9072,0 c 3.0594,0 3.7624,2.35639 3.9057,4.54353 V 4.60862 20.7909 c 0,2.4084 2.135,2.1741 2.1871,2.1611 v 0.2473 c 0,0.0131 -0.013,0.0261 -0.026,0.0261 H 92.8364 C 90.5321,23.1473 89.2823,21.4418 89.1652,18.5907 V 18.4866 2.16111 c 0,-2.1741288 -2.1351,-1.926773 -2.1872,-1.913754 V 0.0260374 C 86.978,0.0130187 86.991,0 87.0041,0 Z M 73.3474,8.0716 c 1.2498,1.49716 1.0936,2.8902 1.1196,4.7258 v 0.1041 8.1758 c 0,2.2653 2.2262,2.0049 2.2913,1.9919 v 0.2343 c 0,0.013 -0.013,0.026 -0.026,0.026 h -1.9919 c -3.3067,0 -5.0512,-2.8641 -5.1293,-5.1944 v -0.3646 c 0,-2.3563 0,-6.7306 0,-6.5484 0.1041,-2.95522 -1.3149,-4.86897 -3.1896,-5.15538 -0.0261,0 -0.0261,-0.03906 0,-0.05207 2.7079,-1.0415 5.1033,-0.10415 6.9259,2.05695 z M 52.7648,5.58503 c 0.0131,0 0.0261,0.01302 0.0261,0.02604 V 20.9862 c 0,2.3433 2.2913,2.083 2.3434,2.0699 v 0.2344 c 0,0.013 -0.0131,0.026 -0.0261,0.026 h -2.0439 c -2.3174,0 -5.1294,-0.9504 -5.1294,-4.1269 0,-3.9707 -0.1172,-13.40929 -0.1172,-13.60457 z M 3.46298,5.93653 c 0,0 0,-0.01302 0,0 C 4.43938,5.67616 5.46786,5.55899 6.4703,5.59805 7.82425,5.67616 9.03499,6.23596 10.1806,6.95199 10.0635,7.04312 9.9463,6.96501 9.26932,6.63954 8.78763,6.40521 8.01953,6.20993 7.42067,6.18389 6.52238,6.15785 5.59805,6.13181 4.96013,6.79577 4.47844,7.32954 4.21806,7.99349 4.21806,8.81367 c 0,0.61188 0.18227,1.19773 0.55981,1.67943 0.39056,0.4817 0.84621,0.9243 1.40602,1.3019 0.53377,0.3515 1.27583,0.7941 2.20016,1.3018 1.10659,0.5859 1.97885,1.0936 2.64285,1.5493 0.6639,0.4556 1.2237,1.0154 1.6924,1.6794 0.4556,0.6639 0.6639,1.432 0.6639,2.2913 0,0.8462 -0.2603,1.6533 -0.7681,2.3433 -0.5077,0.7161 -1.3018,1.2759 -2.3564,1.7055 C 9.97233,22.7697 9.69894,22.8478 9.41253,22.926 8.41009,23.2124 7.36859,23.3295 6.31408,23.3035 5.20749,23.2644 4.16599,22.965 3.21562,22.4703 c 0,0 -0.05207,-0.1823 0.84622,0.1823 1.36696,0.5467 3.09845,0.4426 4.23108,-0.6249 0.61188,-0.5859 0.92433,-1.354 0.92433,-2.3174 0,-0.5598 -0.18226,-1.0675 -0.53377,-1.5101 C 8.345,17.7705 7.91538,17.38 7.40765,17.0545 6.92596,16.729 6.19691,16.3124 5.31164,15.8047 4.17901,15.2189 3.2677,14.6591 2.53865,14.1774 1.84866,13.6957 1.26282,13.0838 0.768104,12.3678 0.260374,11.6387 0,10.7795 0,9.77705 0,9.00895 0.234337,8.29292 0.689992,7.655 1.14565,7.04312 1.84866,6.53539 2.786,6.14483 Z M 38.7958,5.58503 c 3.3848,0 4.1139,2.95525 4.192,5.38977 v 4.6086 c 0,0.9894 0,1.7445 0,1.9138 v 0.026 c 0,1.6013 0.3255,2.76 0.8202,3.5932 0.8462,1.445 2.773,1.7575 3.2807,1.8226 0.026,0 0.026,0.039 0,0.052 -2.8121,0.8983 -6.0277,-0.026 -7.9284,-2.1741 -1.3019,-1.5752 -1.1196,-3.0594 -1.1196,-5.0122 -0.0651,-2.4215 -0.0261,-5.0382 -0.0391,-7.48574 0.2083,-2.53865 -1.9007,-2.48658 -2.3303,-2.4345 h -0.013 V 5.61107 c 0,-0.01302 0.013,-0.02604 0.026,-0.02604 z M 86.7046,5.6371 c 0.0261,0 0.0261,0.03906 0.0131,0.05208 -0.4557,0.2083 -2.6298,1.22376 -3.1506,2.4345 -1.2107,2.14812 -1.1326,10.20662 -0.0781,12.41982 0.677,1.7445 2.7079,2.4085 3.2026,2.5517 0.0261,0.013 0.0261,0.0521 0,0.0521 -5.572,1.1196 -9.4385,-3.3328 -9.2303,-8.8397 -0.1432,-5.70223 3.7885,-9.20426 9.2433,-8.6705 z M 60.0944,5.58503 c 2.3434,0 4.0358,1.62734 4.0358,4.43937 0,2.9032 0.1562,9.3474 0.1562,10.6754 0,2.5907 2.2913,2.3563 2.3434,2.3563 v 0.1953 c 0,0.0391 -0.0261,0.0651 -0.0651,0.0651 h -9.4646 c -0.0651,0 -0.1302,-0.0521 -0.1302,-0.1302 0,-0.0651 0.0521,-0.1302 0.1302,-0.1302 0.4817,0.0131 2.1741,-0.1171 2.2132,-2.2782 V 20.6867 7.90236 c 0,-2.33035 -2.2913,-2.06998 -2.3434,-2.05696 V 5.65012 c 0,-0.03905 0.026,-0.06509 0.0651,-0.06509 z"
     fill="#c7a4a0"
     id="path2" />
  <g
     style="fill:none"
     id="g25"
     transform="translate(35.412595,31.996049)">
    <path
       d="M 0.617658,4.01084 C 0.604639,3.11255 0.917092,2.33143 1.58105,1.68049 2.245,1.02956 3.02612,0.717108 3.92441,0.730127 c 0.55981,0 1.06754,0.117169 1.53621,0.364523 0.46868,0.24736 0.8332,0.57282 1.10659,1.00244 L 6.00741,2.53973 C 5.48666,1.79766 4.79667,1.42012 3.93743,1.42012 3.2214,1.42012 2.62254,1.66747 2.12783,2.16219 1.64614,2.6569 1.39878,3.26878 1.39878,4.01084 c 0,0.74207 0.24736,1.35395 0.72905,1.84866 0.48169,0.49471 1.08055,0.74207 1.8096,0.74207 0.85924,0 1.54923,-0.37755 2.06998,-1.11961 l 0.5598,0.44263 C 6.29382,6.35421 5.9293,6.67968 5.46062,6.92704 4.99195,7.17439 4.48422,7.29156 3.92441,7.29156 3.02612,7.30458 2.245,6.99213 1.58105,6.34119 0.917092,5.69026 0.591621,4.90914 0.617658,4.01084 Z"
       fill="#c7a4a0"
       id="path10" />
    <path
       d="m 15.4186,5.35082 c 0,0.53377 -0.1822,0.97641 -0.5467,1.31489 -0.3646,0.33849 -0.8593,0.50773 -1.4581,0.50773 H 10.797 V 0.820312 h 2.1871 c 0.5468,0 0.9895,0.156225 1.3149,0.455658 0.3255,0.29943 0.4947,0.68999 0.4947,1.15866 0,0.52075 -0.2083,0.93735 -0.6118,1.2498 0.3905,0.11717 0.69,0.32547 0.9113,0.61188 0.2213,0.29943 0.3254,0.65093 0.3254,1.05451 z M 12.906,1.5103 h -1.3539 v 1.96583 h 1.3539 c 0.3646,0 0.6379,-0.09113 0.8332,-0.26038 0.1953,-0.18226 0.2864,-0.41659 0.2864,-0.72904 0,-0.31245 -0.0911,-0.54679 -0.2864,-0.71603 C 13.5309,1.58842 13.2575,1.5103 12.906,1.5103 Z m 1.393,4.68674 c 0.2344,-0.2083 0.3515,-0.49471 0.3515,-0.85924 0,-0.36452 -0.1171,-0.65093 -0.3515,-0.85923 -0.2343,-0.2083 -0.5598,-0.31245 -0.9634,-0.31245 h -1.7835 v 2.34337 h 1.7835 c 0.4036,0 0.7291,-0.10415 0.9634,-0.31245 z"
       fill="#c7a4a0"
       id="path12" />
    <path
       d="M 24.5586,7.18663 H 23.6864 L 21.7205,4.51779 H 20.3666 V 7.18663 H 19.6115 V 0.833496 h 2.2262 c 0.6119,0 1.1066,0.169244 1.4711,0.520744 0.3776,0.33849 0.5598,0.78113 0.5598,1.32791 0,0.42962 -0.1171,0.79414 -0.3515,1.10659 -0.2343,0.31245 -0.5598,0.53377 -0.9764,0.65094 z m -4.205,-5.67616 v 2.34337 h 1.4581 c 0.4036,0 0.716,-0.10415 0.9373,-0.31245 0.2213,-0.2083 0.3385,-0.49471 0.3385,-0.84622 0,-0.3515 -0.1172,-0.63791 -0.3385,-0.84621 C 22.5147,1.62764 22.2022,1.52349 21.8117,1.52349 h -1.4581 z"
       fill="#c7a4a0"
       id="path14" />
  </g>
</svg>
