<svg width="269" height="167" viewBox="0 0 269 167" fill="none" xmlns="http://www.w3.org/2000/svg">
<path fill-rule="evenodd" clip-rule="evenodd" d="M56.6495 66.4629C67.5836 66.9948 74.9289 73.5113 74.8619 84.5494C74.9289 95.5875 67.5501 102.104 56.6495 102.636V102.27C63.4582 100.408 64.7327 92.5952 64.7327 84.5494C64.7327 72.6136 61.0097 67.2941 56.6495 66.7954V66.4629ZM51.652 66.4629V66.7954C47.2918 67.2941 43.5688 72.6136 43.5688 84.5494C43.5688 92.5287 44.8098 100.242 51.4508 102.204L51.652 102.27V102.636C40.7179 102.104 33.3726 95.5875 33.4396 84.5494C33.3726 73.5113 40.7179 66.9948 51.652 66.4629ZM206.407 53.2305C213.014 53.2305 214.524 58.2508 214.825 62.9054V63.0384V97.6156C214.825 102.769 219.42 102.237 219.555 102.237V102.835H212.746C207.782 102.669 205.099 99.012 204.83 92.9277V92.695V57.8518C204.83 53.2305 200.235 53.7292 200.101 53.7624V53.2305H206.407ZM165.689 71.5497C168.271 74.6085 167.97 77.4677 168.003 81.2579V81.4907V98.2473C168.003 102.869 172.632 102.37 172.732 102.337V102.869H168.54C161.698 102.869 158.075 96.9839 157.941 92.2295V91.4981C157.941 86.644 157.941 77.7005 157.941 78.0662C158.176 71.8822 155.124 67.9258 151.132 67.4603C156.868 65.1662 161.899 67.0613 165.689 71.5497ZM117.559 67.693V98.214C117.559 102.869 122.154 102.337 122.254 102.337V102.869H118.095C113.467 102.869 107.832 100.974 107.832 94.6898C107.832 86.8102 107.597 68.092 107.597 67.7263H117.559V67.693ZM7.44594 65.8977C9.55898 65.3657 11.7391 65.0665 13.9192 65.1995C16.8372 65.3657 19.4534 66.5626 21.9353 68.092C21.667 68.2915 21.4322 68.1252 19.9565 67.4271C18.9167 66.9283 17.2397 66.4961 15.9652 66.4629C14.0534 66.3964 12.041 66.3631 10.6658 67.7595C9.62606 68.8899 9.05587 70.3196 9.05587 72.0484C9.05587 73.3451 9.45835 74.6085 10.2633 75.6391C11.1018 76.6698 12.0745 77.6007 13.3155 78.4319C14.4894 79.1966 16.0658 80.1275 18.0782 81.2247C20.4596 82.4881 22.3378 83.552 23.78 84.5494C25.2223 85.5136 26.4297 86.7105 27.4359 88.1401C28.4421 89.5697 28.8782 91.1988 28.8782 93.0274C28.8782 94.8228 28.3415 96.5517 27.2347 98.0478C26.1279 99.5772 24.4173 100.774 22.1701 101.705C21.5664 101.938 20.9627 102.071 20.3589 102.237C18.2124 102.835 15.9316 103.101 13.6844 103.068C11.3031 102.968 9.05587 102.337 7.00991 101.306C7.00991 101.306 6.90929 100.907 8.82109 101.672C11.7391 102.835 15.4956 102.636 17.944 100.342C19.2857 99.0785 19.9229 97.4493 19.9229 95.388C19.9229 94.1911 19.5204 93.094 18.749 92.163C18.0447 91.2321 17.1055 90.4342 15.9987 89.7027C14.959 89.0045 13.4161 88.1401 11.4708 87.0429C9.05587 85.7795 7.04346 84.5826 5.5006 83.552C4.02483 82.5213 2.7503 81.2247 1.67701 79.6953C0.536644 78.0994 0 76.2376 0 74.1098C0 72.4806 0.503104 70.9513 1.47577 69.5881C2.48198 68.2915 3.95775 67.1943 6.00371 66.3631L7.44594 65.8977ZM84.5885 67.4603C91.4308 67.4603 92.9065 73.3783 93.0742 78.2657V87.5084C93.0742 89.47 93.0742 90.9994 93.0742 91.3318V91.3983C93.0742 94.6233 93.745 96.9174 94.7177 98.5798C96.6966 101.938 101.593 102.27 101.593 102.27C95.8581 104.199 89.2171 102.337 85.3264 97.9813C82.6767 94.8228 83.0792 91.8306 83.0792 87.9406C82.9451 83.0865 83.0122 77.8334 83.0122 72.9461C83.4146 67.8593 79.1886 67.959 78.3165 68.0588H78.283V67.4603H84.5885ZM197.619 66.5959C197.619 66.5959 192.085 68.8899 190.844 71.7492C188.295 76.2043 188.463 92.9277 190.676 97.5158C192.286 101.638 197.619 102.869 197.619 102.869C185.847 105.362 177.629 96.0862 178.065 84.5826C177.797 72.6801 186.115 65.3657 197.619 66.5959ZM135.503 67.693C140.232 67.693 143.653 70.9513 143.653 76.6033C143.653 82.4216 143.988 95.3548 143.988 98.0145C143.988 103.201 148.617 102.769 148.718 102.736V103.268H129.164V102.736C129.164 102.736 133.792 103.234 133.893 98.1808V97.9813V72.3144C133.893 67.6598 129.264 68.1585 129.164 68.1917V67.6598H135.503V67.693Z" fill="#C7A4A0"/>
<path d="M129.23 29.0264C130.035 29.4586 130.907 29.6913 131.544 29.0596C132.014 28.5942 132.081 28.0955 131.544 27.5635C130.605 26.6326 128.358 29.1926 126.547 27.364C125.675 26.4996 125.675 25.1365 126.547 24.272C127.318 23.5073 128.257 23.3079 129.263 23.6736L128.962 25.07C128.324 24.8705 127.888 24.937 127.553 25.2694C127.217 25.6019 127.217 26.0341 127.519 26.3334C128.525 27.3308 130.873 24.7707 132.55 26.4664C133.657 27.5635 133.59 28.9932 132.483 30.0571C131.444 31.0877 129.934 31.121 128.894 30.4228L129.23 29.0264Z" fill="#C7A4A0"/>
<path d="M138.689 14.2988C140.399 13.1352 142.613 13.2682 144.223 15.5622C145.799 17.8895 145.095 19.9841 143.384 21.1145C141.674 22.2782 139.46 22.1452 137.85 19.8511C136.274 17.5238 136.978 15.4292 138.689 14.2988ZM142.579 19.9841C143.585 19.2859 144.021 17.9893 142.915 16.4266C141.841 14.864 140.466 14.7643 139.46 15.4292C138.454 16.0942 138.018 17.4241 139.125 18.9867C140.198 20.5826 141.573 20.649 142.579 19.9841Z" fill="#C7A4A0"/>
<path d="M150.26 7.81563L151.668 7.21718L153.647 11.8385C154.117 12.9025 154.821 13.2682 155.76 12.8692C156.699 12.4702 156.934 11.7388 156.465 10.6749L154.486 6.05353L155.895 5.45508L157.873 10.0764C158.712 12.0713 157.94 13.4677 156.331 14.1659C154.687 14.864 153.144 14.4318 152.272 12.437L150.26 7.81563Z" fill="#C7A4A0"/>
<path d="M166.695 10.4419L164.951 2.56231L166.494 2.22984L170.586 6.78472L169.446 1.56489L170.921 1.23242L172.665 9.11203L171.123 9.4445L167.031 4.92287L168.171 10.1427L166.695 10.4419Z" fill="#C7A4A0"/>
<path d="M180.914 8.14826L180.68 0.0691817L183.229 0.00268725C185.141 -0.0638072 187.052 1.09985 187.153 3.92586C187.254 6.75188 185.409 8.01527 183.464 8.08177L180.914 8.14826ZM182.39 6.71863H182.96C184.268 6.68538 185.677 6.12018 185.61 3.99236C185.543 1.83129 184.101 1.36582 182.793 1.43232H182.223L182.39 6.71863Z" fill="#C7A4A0"/>
<path d="M210.566 3.46145C212.545 4.0599 213.853 5.85525 213.048 8.51504C212.209 11.2081 210.13 11.9728 208.151 11.3743C206.172 10.7759 204.864 8.9805 205.669 6.32072C206.474 3.66093 208.587 2.86299 210.566 3.46145ZM208.553 10.0444C209.727 10.4101 211.002 9.91143 211.572 8.08283C212.142 6.25422 211.337 5.12381 210.163 4.79134C208.989 4.42562 207.715 4.92433 207.145 6.75293C206.574 8.58154 207.379 9.71195 208.553 10.0444Z" fill="#C7A4A0"/>
<path d="M219.186 15.531L222.976 8.38281L227.537 10.7434L226.9 11.9735L223.68 10.3112L222.808 11.9403L225.39 13.3034L224.753 14.5336L222.171 13.1704L220.561 16.2292L219.186 15.531Z" fill="#C7A4A0"/>
<path d="M237.934 28.2634L243.77 22.6113L244.943 23.8082L242.629 28.6956L247.627 26.5345L248.801 27.7314L242.965 33.3834L241.891 32.3195L245.48 28.8286L241.321 30.6904L240.55 29.9257L242.529 25.8363L238.94 29.3273L237.934 28.2634Z" fill="#C7A4A0"/>
<path d="M248.129 39.9006L254.837 35.3125L255.709 36.5427L249.001 41.1308L248.129 39.9006Z" fill="#C7A4A0"/>
<path d="M253.33 48.2117L260.675 44.7207L261.346 46.1503L257.791 51.1374L262.654 48.8434L263.292 50.2065L255.946 53.6975L255.275 52.2678L258.831 47.314L253.967 49.6081L253.33 48.2117Z" fill="#C7A4A0"/>
<path d="M258.762 61.4109L266.644 59.3496L267.281 61.8099C267.784 63.6385 267.046 65.7663 264.296 66.4645C261.546 67.196 259.869 65.6998 259.399 63.838L258.762 61.4109ZM260.506 62.5081L260.64 63.0401C260.975 64.3034 261.814 65.5336 263.927 65.0016C266.006 64.4697 266.141 62.9403 265.839 61.7102L265.705 61.1782L260.506 62.5081Z" fill="#C7A4A0"/>
<path d="M263.994 95.7557C263.088 95.8554 262.25 96.1879 262.082 97.0523C261.981 97.684 262.216 98.1495 262.954 98.2825C264.262 98.5152 264.631 95.124 267.18 95.5894C268.388 95.7889 269.193 96.9193 268.958 98.1495C268.757 99.2134 268.086 99.9116 267.08 100.178L266.543 98.8477C267.18 98.6482 267.516 98.349 267.583 97.8835C267.65 97.4513 267.415 97.0523 266.979 96.9858C265.57 96.7531 265.134 100.178 262.753 99.7454C261.21 99.4794 260.438 98.2825 260.707 96.7531C260.975 95.3235 262.183 94.4258 263.457 94.4258L263.994 95.7557Z" fill="#C7A4A0"/>
<path d="M264.699 113.177C263.962 115.072 262.083 116.269 259.434 115.272C256.784 114.274 256.18 112.147 256.918 110.251C257.656 108.356 259.534 107.159 262.184 108.157C264.834 109.121 265.437 111.249 264.699 113.177ZM258.226 110.717C257.79 111.847 258.193 113.144 260.004 113.842C261.815 114.54 262.989 113.809 263.425 112.679C263.861 111.548 263.458 110.251 261.647 109.553C259.836 108.888 258.662 109.587 258.226 110.717Z" fill="#C7A4A0"/>
<path d="M258.965 125.046L258.16 126.309L253.867 123.616C252.86 122.985 252.089 123.118 251.552 123.949C251.016 124.813 251.25 125.545 252.257 126.176L256.55 128.869L255.745 130.133L251.452 127.473C249.607 126.309 249.439 124.714 250.378 123.251C251.317 121.755 252.86 121.223 254.705 122.386L258.965 125.046Z" fill="#C7A4A0"/>
<path d="M243.936 132.195L249.94 137.681L248.867 138.845L242.897 137.415L246.854 141.039L245.815 142.136L239.777 136.65L240.851 135.487L246.821 136.916L242.863 133.292L243.936 132.195Z" fill="#C7A4A0"/>
<path d="M233.607 142.168L238.47 148.651L236.424 150.147C234.881 151.278 232.634 151.411 230.957 149.15C229.247 146.889 230.018 144.795 231.561 143.664L233.607 142.168ZM233.204 144.163L232.768 144.495C231.729 145.26 230.89 146.523 232.165 148.252C233.439 149.981 234.915 149.549 235.955 148.784L236.391 148.452L233.204 144.163Z" fill="#C7A4A0"/>
<path d="M211.973 162.782C210.028 163.414 207.915 162.682 207.043 160.022C206.171 157.363 207.445 155.534 209.424 154.936C211.37 154.304 213.483 155.035 214.355 157.695C215.227 160.322 213.952 162.15 211.973 162.782ZM209.86 156.232C208.686 156.598 207.915 157.728 208.519 159.557C209.122 161.352 210.397 161.851 211.571 161.452C212.745 161.086 213.516 159.956 212.912 158.127C212.309 156.332 211.001 155.867 209.86 156.232Z" fill="#C7A4A0"/>
<path d="M197.953 157.729L198.992 165.741L193.894 166.406L193.727 165.043L197.349 164.577L197.114 162.749L194.196 163.115L194.028 161.751L196.946 161.386L196.51 157.961L197.953 157.729Z" fill="#C7A4A0"/>
<path d="M175.214 157.928L173.772 165.874L170.854 165.342C169.479 165.109 168.674 164.245 168.942 162.782C169.043 162.15 169.445 161.619 169.982 161.452C169.277 161.02 168.942 160.322 169.143 159.291C169.412 157.729 170.585 157.064 172.229 157.363L175.214 157.928ZM172.833 162.516L171.457 162.283C170.854 162.184 170.485 162.35 170.351 162.982C170.25 163.613 170.518 163.913 171.156 164.012L172.497 164.245L172.833 162.516ZM173.47 159.025L172.095 158.793C171.156 158.626 170.72 158.959 170.619 159.624C170.485 160.289 170.787 160.754 171.726 160.92L173.101 161.153L173.47 159.025Z" fill="#C7A4A0"/>
<path d="M155.491 161.153C153.579 160.421 152.405 158.526 153.411 155.933C154.451 153.306 156.598 152.708 158.51 153.472C160.421 154.204 161.595 156.099 160.589 158.692C159.549 161.319 157.403 161.917 155.491 161.153ZM158.006 154.736C156.866 154.304 155.558 154.703 154.854 156.465C154.149 158.227 154.854 159.424 155.994 159.856C157.134 160.288 158.442 159.889 159.147 158.127C159.851 156.365 159.147 155.201 158.006 154.736Z" fill="#C7A4A0"/>
<path d="M147.813 148.485L143.452 155.301L141.306 153.938C139.696 152.907 138.757 150.879 140.299 148.518C141.842 146.125 144.056 146.091 145.699 147.122L147.813 148.485ZM145.8 148.851L145.331 148.552C144.224 147.853 142.748 147.521 141.574 149.35C140.4 151.178 141.339 152.342 142.446 153.04L142.916 153.339L145.8 148.851Z" fill="#C7A4A0"/>
<path d="M131.544 146.923L130.337 145.826L131.377 142.535L128.157 143.865L126.949 142.768L131.846 140.906L134.194 138.379L135.301 139.376L132.953 141.903L131.544 146.923Z" fill="#C7A4A0"/>
<path d="M264.833 81.8577C265.722 81.8577 266.443 81.1433 266.443 80.2619C266.443 79.3805 265.722 78.666 264.833 78.666C263.943 78.666 263.223 79.3805 263.223 80.2619C263.223 81.1433 263.943 81.8577 264.833 81.8577Z" fill="#C7A4A0"/>
</svg>
