<svg width="140" height="35" viewBox="0 0 140 35" fill="none" xmlns="http://www.w3.org/2000/svg">
<path fill-rule="evenodd" clip-rule="evenodd" d="M38.4269 8.57452C46.173 8.93525 51.3941 13.6247 51.3561 21.5037C51.3941 29.3828 46.192 34.0722 38.4269 34.4329V34.2431C38.4269 34.2051 38.4649 34.1671 38.5028 34.1482C43.2682 32.7812 44.1606 27.2184 44.1606 21.5037C44.1606 12.9602 41.5216 9.14409 38.4269 8.80235V8.57452ZM34.8766 8.57452V8.80235C31.8009 9.14409 29.1429 12.9602 29.1429 21.5037C29.1429 27.1994 30.0163 32.7242 34.7247 34.1292L34.8766 34.1671V34.4329C27.1305 34.0722 21.9094 29.3828 21.9474 21.5037C21.9094 13.6247 27.1305 8.95423 34.8766 8.57452ZM131.115 0.429688C135.576 0.429688 136.602 3.86609 136.81 7.05567V7.1506V30.7497C136.81 34.2621 139.924 33.9203 140 33.9013V34.2621C140 34.2811 139.981 34.3 139.962 34.3H135.386C132.026 34.1861 130.203 31.699 130.033 27.5412V27.3893V3.5813C130.033 0.410702 126.919 0.771429 126.843 0.790414V0.467659C126.843 0.448673 126.862 0.429688 126.881 0.429688H131.115ZM106.965 12.2008C108.788 14.3841 108.56 16.4156 108.598 19.0926V19.2444V31.1674C108.598 34.4709 111.844 34.0912 111.939 34.0722V34.414C111.939 34.4329 111.92 34.4519 111.901 34.4519H108.996C104.174 34.4519 101.63 30.2751 101.516 26.8767V26.3451C101.516 22.9087 101.516 16.5295 101.516 16.7953C101.668 12.4856 99.5986 9.69467 96.8647 9.27699C96.8267 9.27699 96.8267 9.22003 96.8647 9.20105C100.814 7.6822 104.307 9.04916 106.965 12.2008ZM76.9487 8.57452C76.9677 8.57452 76.9867 8.59351 76.9867 8.61249V31.0345C76.9867 34.4519 80.3282 34.0722 80.4041 34.0532V34.395C80.4041 34.414 80.3851 34.4329 80.3661 34.4329H77.3854C74.006 34.4329 69.9051 33.047 69.9051 28.4145C69.9051 22.6239 69.7342 8.85931 69.7342 8.57452H76.9487ZM5.05018 9.08713C5.05018 9.08713 5.05018 9.06815 5.05018 9.08713C6.4741 8.70742 7.97396 8.53655 9.43586 8.59351C11.4104 8.70742 13.176 9.5238 14.8468 10.568C14.6759 10.7009 14.505 10.587 13.5178 10.1124C12.8153 9.77061 11.6951 9.48583 10.8218 9.44786C9.5118 9.40989 8.16382 9.37192 7.23352 10.3402C6.53105 11.1186 6.15134 12.0869 6.15134 13.283C6.15134 14.1753 6.41714 15.0296 6.96772 15.7321C7.53729 16.4346 8.20179 17.0801 9.01817 17.6307C9.79658 18.1433 10.8788 18.7888 12.2267 19.5292C13.8405 20.3836 15.1126 21.124 16.0808 21.7885C17.0491 22.453 17.8655 23.2694 18.549 24.2377C19.2135 25.2059 19.5172 26.3261 19.5172 27.5791C19.5172 28.8132 19.1375 29.9903 18.3971 30.9965C17.6566 32.0408 16.4985 32.8571 14.9607 33.4837C14.543 33.6355 14.1443 33.7495 13.7266 33.8634C12.2647 34.2811 10.7459 34.4519 9.20803 34.414C7.59425 34.357 6.0754 33.9203 4.68945 33.1989C4.68945 33.1989 4.61351 32.9331 5.92351 33.4647C7.91701 34.2621 10.4421 34.1102 12.0938 32.5534C12.9862 31.699 13.4418 30.5789 13.4418 29.1739C13.4418 28.3575 13.176 27.6171 12.6634 26.9716C12.1698 26.3451 11.5433 25.7755 10.8028 25.3009C10.1004 24.8262 9.03716 24.2187 7.74613 23.4782C6.09439 22.6239 4.76539 21.8075 3.7022 21.105C2.69596 20.4026 1.84161 19.5102 1.12015 18.466C0.379712 17.4028 0 16.1498 0 14.6879C0 13.5677 0.341741 12.5235 1.00624 11.5932C1.67074 10.7009 2.69596 9.96047 4.06292 9.3909L5.05018 9.08713ZM56.5772 8.57452C61.5134 8.57452 62.5766 12.8843 62.6905 16.4346V23.1555C62.6905 24.5984 62.6905 25.6996 62.6905 25.9464V25.9843C62.6905 28.3196 63.1652 30.0093 63.8866 31.2244C65.1207 33.3318 67.9306 33.7874 68.671 33.8824C68.709 33.8824 68.709 33.9393 68.671 33.9583C64.5701 35.2683 59.8807 33.9203 57.1088 30.7877C55.2102 28.4904 55.476 26.3261 55.476 23.4782C55.3811 19.9469 55.438 16.1308 55.419 12.5615C55.7228 8.85931 52.6471 8.93525 52.0206 9.01119H52.0016V8.61249C52.0016 8.59351 52.0206 8.57452 52.0396 8.57452H56.5772ZM126.444 8.65046C126.482 8.65046 126.482 8.70742 126.463 8.72641C125.799 9.03018 122.628 10.5111 121.869 12.2767C120.103 15.4093 120.217 27.1614 121.755 30.389C122.742 32.9331 125.704 33.9013 126.425 34.1102C126.463 34.1292 126.463 34.1861 126.425 34.1861C118.299 35.8189 112.661 29.3258 112.964 21.2949C112.756 12.9792 118.489 7.87205 126.444 8.65046ZM87.6376 8.57452C91.0551 8.57452 93.5232 10.9477 93.5232 15.0486C93.5232 19.2824 93.751 28.6803 93.751 30.6168C93.751 34.395 97.0925 34.0532 97.1684 34.0532V34.338C97.1684 34.395 97.1305 34.4329 97.0735 34.4329H83.271C83.176 34.4329 83.0811 34.357 83.0811 34.2431C83.0811 34.1482 83.157 34.0532 83.271 34.0532C83.9734 34.0722 86.4416 33.8824 86.4985 30.7307V30.5978V11.954C86.4985 8.55554 83.157 8.93525 83.0811 8.95423V8.66945C83.0811 8.61249 83.1191 8.57452 83.176 8.57452H87.6376Z" fill="#D4A6A1"/>
</svg>
