<svg width="1500" height="282" viewBox="0 0 1500 282" fill="none" xmlns="http://www.w3.org/2000/svg">
<path d="M1415.47 -52.3064C1672.12 -47.747 1857.33 -199.519 1917.86 -275.975L1588.93 -437.385L392.456 -429.943C240.245 -408.985 -58.7032 -319.547 -36.8097 -129.458C-9.44286 108.152 537.403 60.4741 761.875 115.814C986.347 171.153 1094.67 -58.0056 1415.47 -52.3064Z" fill="#F1E7E6" stroke="white"/>
<path d="M1435.36 -67.5102C1692 -62.9254 1877.15 -214.686 1937.65 -291.14L1608.66 -452.59L412.215 -445.266C260.015 -424.322 -38.8945 -334.909 -16.9311 -144.809C10.5233 92.8161 557.341 45.1893 781.83 100.554C1006.32 155.918 1114.55 -73.2412 1435.36 -67.5102Z" fill="#F1E7E6" stroke="white"/>
<path d="M1410.27 -54.2366C1666.91 -49.6772 1852.13 -201.449 1912.65 -277.905L1583.72 -439.315L387.25 -431.874C235.04 -410.916 -63.9087 -321.477 -42.0152 -131.389C-14.6484 106.222 532.197 58.5439 756.669 113.884C981.141 169.223 1089.46 -59.9357 1410.27 -54.2366Z" fill="#F1E7E6" stroke="white"/>
<path d="M1409.91 -46.2366C1666.55 -41.6772 1851.76 -193.449 1912.29 -269.905L1583.36 -431.315L386.887 -423.874C234.676 -402.916 -64.272 -313.477 -42.3785 -123.389C-15.0117 114.222 531.834 66.5439 756.306 121.884C980.778 177.223 1089.1 -51.9357 1409.91 -46.2366Z" stroke="#F1E7E6"/>
<path d="M1441.55 -23.5933C1698.19 -19.0339 1883.4 -170.806 1943.93 -247.262L1615 -408.671L418.527 -401.23C266.316 -380.272 -32.6324 -290.834 -10.7389 -100.745C16.6279 136.866 563.473 89.1872 787.946 144.527C1012.42 199.866 1120.74 -29.2924 1441.55 -23.5933Z" stroke="#F1E7E6"/>
<path d="M1384.91 -36.2375C1641.55 -31.6782 1826.76 -183.45 1887.29 -259.906L1558.36 -421.316L361.887 -413.875C209.676 -392.917 -89.272 -303.478 -67.3785 -113.39C-40.0117 124.221 506.834 76.5429 731.306 131.883C955.778 187.222 1064.1 -41.9367 1384.91 -36.2375Z" stroke="#F1E7E6"/>
</svg>
